# xmcd CD database file
#
# Track frame offsets:
#	150
#	31378
#	63631
#	100643
#	127669
#	160154
#	191927
#	223549
#	243648
#	274038
#	295893
#
# Disc length: 4258 seconds
#
# Revision: 0
# Processed by: cddbd v1.5.2PL0 Copyright (c) Steve Scherf et al.
# Submitted via: CDex 1.70beta2
#
DISCID=a010a00b
DTITLE=Brad Shepik - Across the Way
DYEAR=2010
DGENRE=Jazz
TTITLE0=Across the Way
TTITLE1=Down the Hill
TTITLE2=Xylo
TTITLE3=Garden
TTITLE4=German Taco
TTITLE5=Marburg
TTITLE6=Transfer
TTITLE7=Pfaffenhofen
TTITLE8=Mambo Terni
TTITLE9=Your Egg Roll
TTITLE10=Train Home
EXTD=YEAR: 2010
EXTT0=
EXTT1=
EXTT2=
EXTT3=
EXTT4=
EXTT5=
EXTT6=
EXTT7=
EXTT8=
EXTT9=
EXTT10=
PLAYORDER=
